<svg xmlns="http://www.w3.org/2000/svg" xmlns:xlink="http://www.w3.org/1999/xlink" width="500" zoomAndPan="magnify" viewBox="0 0 375 374.999991" height="500" preserveAspectRatio="xMidYMid meet" version="1.0"><defs><clipPath id="8fa2b4b7de"><path d="M 72 50 L 302.976562 50 L 302.976562 325.222656 L 72 325.222656 Z M 72 50 " clip-rule="nonzero"/></clipPath></defs><g clip-path="url(#8fa2b4b7de)"><path fill="#1bb4bf" d="M 273.609375 108.222656 C 289.664062 108.222656 302.714844 95.171875 302.714844 79.117188 C 302.714844 63.066406 289.664062 50.011719 273.609375 50.011719 C 257.558594 50.011719 244.503906 63.066406 244.503906 79.117188 C 244.503906 87.011719 247.664062 94.171875 252.769531 99.421875 L 199.761719 164.5 C 193.773438 160.488281 186.679688 158.285156 179.441406 158.285156 C 172.203125 158.285156 165.46875 160.339844 159.5625 164.207031 L 132.644531 130.140625 C 136.296875 126.222656 138.550781 120.96875 138.550781 115.195312 C 138.550781 103.089844 128.699219 93.238281 116.578125 93.238281 C 104.460938 93.238281 94.621094 103.089844 94.621094 115.195312 C 94.621094 127.300781 104.472656 137.167969 116.578125 137.167969 C 120.523438 137.167969 124.21875 136.113281 127.417969 134.289062 L 154.335938 168.339844 C 149.164062 173.230469 145.578125 179.472656 143.976562 186.351562 L 112.257812 184.433594 C 111.191406 174.417969 102.699219 166.59375 92.394531 166.59375 C 81.382812 166.59375 72.40625 175.550781 72.40625 186.578125 C 72.40625 197.605469 81.382812 206.5625 92.394531 206.5625 C 101.859375 206.5625 109.792969 199.9375 111.847656 191.085938 L 143.058594 192.976562 C 143.03125 193.566406 142.992188 194.152344 142.992188 194.738281 C 142.992188 202.9375 145.65625 210.671875 150.683594 217.109375 C 151.070312 217.617188 151.484375 218.097656 151.898438 218.578125 L 137.203125 232.789062 C 132.164062 229.550781 126.179688 227.65625 119.753906 227.65625 C 101.953125 227.65625 87.472656 242.136719 87.472656 259.933594 C 87.472656 277.734375 101.953125 292.210938 119.753906 292.210938 C 137.550781 292.210938 152.03125 277.734375 152.03125 259.933594 C 152.03125 250.960938 148.363281 242.839844 142.445312 236.988281 L 156.695312 223.214844 C 163.082031 228.335938 171.027344 231.175781 179.441406 231.175781 C 184.828125 231.175781 190.132812 229.960938 194.960938 227.683594 L 237.34375 289.71875 C 233.917969 293.480469 231.8125 298.464844 231.8125 303.945312 C 231.8125 315.625 241.304688 325.117188 252.984375 325.117188 C 264.664062 325.117188 274.167969 315.625 274.167969 303.945312 C 274.167969 292.265625 264.664062 282.773438 252.984375 282.773438 C 249.199219 282.773438 245.636719 283.785156 242.558594 285.53125 L 200.71875 224.28125 C 210.148438 217.484375 215.878906 206.46875 215.878906 194.738281 C 215.878906 184.859375 211.921875 175.539062 204.921875 168.710938 L 257.945312 103.636719 C 262.464844 106.53125 267.835938 108.222656 273.609375 108.222656 Z M 116.578125 130.5 C 108.152344 130.5 101.285156 123.636719 101.285156 115.195312 C 101.285156 106.757812 108.152344 99.902344 116.578125 99.902344 C 125.003906 99.902344 131.882812 106.757812 131.882812 115.195312 C 131.882812 123.636719 125.019531 130.5 116.578125 130.5 Z M 92.394531 199.898438 C 85.046875 199.898438 79.074219 193.925781 79.074219 186.578125 C 79.074219 179.230469 85.046875 173.257812 92.394531 173.257812 C 99.738281 173.257812 105.710938 179.230469 105.710938 186.578125 C 105.710938 193.925781 99.738281 199.898438 92.394531 199.898438 Z M 145.363281 259.933594 C 145.363281 274.054688 133.882812 285.546875 119.753906 285.546875 C 105.621094 285.546875 94.140625 274.054688 94.140625 259.933594 C 94.140625 245.816406 105.632812 234.320312 119.753906 234.320312 C 133.871094 234.320312 145.363281 245.800781 145.363281 259.933594 Z M 252.984375 289.4375 C 260.984375 289.4375 267.503906 295.945312 267.503906 303.945312 C 267.503906 311.945312 260.984375 318.449219 252.984375 318.449219 C 244.984375 318.449219 238.476562 311.945312 238.476562 303.945312 C 238.476562 295.945312 244.984375 289.4375 252.984375 289.4375 Z M 209.214844 194.738281 C 209.214844 205.308594 203.535156 215.175781 194.375 220.484375 C 189.855469 223.121094 184.695312 224.507812 179.441406 224.507812 C 170.1875 224.507812 161.628906 220.324219 155.9375 213.015625 C 151.832031 207.75 149.65625 201.429688 149.65625 194.738281 C 149.65625 193.246094 149.761719 191.777344 149.992188 190.339844 C 151.082031 182.84375 154.988281 176.113281 160.988281 171.378906 C 166.28125 167.179688 172.667969 164.953125 179.441406 164.953125 C 186.214844 164.953125 192.933594 167.339844 198.226562 171.644531 C 205.214844 177.324219 209.214844 185.75 209.214844 194.738281 Z M 251.171875 79.117188 C 251.171875 66.746094 261.238281 56.679688 273.609375 56.679688 C 285.980469 56.679688 296.046875 66.746094 296.046875 79.117188 C 296.046875 91.492188 285.980469 101.554688 273.609375 101.554688 C 261.238281 101.554688 251.171875 91.492188 251.171875 79.117188 Z M 251.171875 79.117188 " fill-opacity="1" fill-rule="nonzero"/></g></svg>